<?xml version="1.0" encoding="utf-8"?>
<!-- Generator: Adobe Illustrator 16.0.3, SVG Export Plug-In . SVG Version: 6.00 Build 0)  -->
<!DOCTYPE svg PUBLIC "-//W3C//DTD SVG 1.1//EN" "http://www.w3.org/Graphics/SVG/1.1/DTD/svg11.dtd">
<svg version="1.1" id="Capa_1" xmlns="http://www.w3.org/2000/svg" xmlns:xlink="http://www.w3.org/1999/xlink" x="0px" y="0px"
	 width="627px" height="612px" viewBox="-279.5 -241 627 612" enable-background="new -279.5 -241 627 612" xml:space="preserve">
<path d="M68.943,0.229C58.386,1.332,45.46,5.765,36.662,11.254c-3.472,2.158-7.507,5.09-11.12,8.07
	c-3.894,3.213-11.683,10.955-14.193,14.121C6.61,39.381,2.622,46.652,0.627,52.939c-0.774,2.486-0.845,5.489-0.141,7.014
	c0.727,1.619,1.173,1.338,1.173-0.703c0-2.463,0.704-4.645,2.909-9.195c2.393-4.927,3.988-7.578,6.944-11.495
	c6.123-8.116,17.454-18.039,27.331-23.88c6.897-4.105,15.695-7.202,25.102-8.867c3.566-0.634,11.848-0.868,16.234-0.469
	c5.161,0.469,11.777,2.064,16.587,3.941c4.855,1.9,10.791,5.161,15.272,8.375c2.885,2.041,9.478,7.225,9.501,7.436
	c0,0.07-1.454,0.516-3.236,0.985c-4.107,1.056-5.679,1.666-6.898,2.58c-1.268,0.985-1.807,1.736-1.971,2.792
	c-0.141,0.751-0.047,0.962,0.539,1.571c1.15,1.149,2.019,1.149,10.84,0c7.554-0.962,8.164-1.009,14.24-1.009l6.357-0.023
	l0.844-0.657c1.127-0.844,1.572-1.759,1.572-3.119c0-1.572-0.75-2.745-2.674-4.129c-0.893-0.657-2.487-1.947-3.52-2.885
	c-4.27-3.777-8.587-7.272-10.346-8.351c-4.082-2.533-7.085-2.651-9.15-0.329l-0.703,0.798l-2.933-1.876
	c-9.384-5.958-19.612-9.735-30.122-11.119C81.4-0.052,72.228-0.123,68.943,0.229z"/>
<path d="M-15.729-209.45c-10.466,0.633-21.238,3.94-29.31,8.959c-6.383,3.987-12.86,10.273-18.234,17.662
	c-4.552,6.262-8.823,13.416-11.311,18.928c-2.582,5.746-4.389,11.352-6.5,20.076c-2.487,10.25-2.792,13.275-1.549,15.105
	c0.422,0.633,0.657,0.773,1.314,0.773h0.821l0.165-1.994c0.141-1.97,0.352-2.885,3.332-13.604c2.511-9.123,4.436-14.283,7.674-20.64
	c5.562-10.93,13.892-21.789,21.237-27.606c7.251-5.746,15.911-9.264,26.729-10.906c1.338-0.188,4.201-0.305,7.861-0.305
	c6.336,0.023,9.082,0.305,13.987,1.501c10.066,2.486,16.52,6.262,29.427,17.239c2.558,2.181,7.744,7.153,7.744,7.435
	c0,0.07-0.657,0-1.455-0.164c-2.159-0.446-3.262-0.399-4.411,0.211c-1.197,0.633-2.113,2.111-2.113,3.401
	c0,1.947,1.268,3.377,4.107,4.644c0.773,0.328,4.787,2.299,8.917,4.362c8.284,4.151,9.81,4.808,13.446,5.817
	c4.412,1.242,7.018,0.891,8.777-1.15c1.549-1.806,1.76-4.244,0.586-6.637c-0.352-0.681-1.83-2.768-3.309-4.645
	c-3.145-3.964-3.849-5.066-5.115-8.021c-1.197-2.791-2.254-6.497-3.591-12.548c-2.3-10.602-2.159-10.085-2.815-9.429
	c-0.799,0.797-1.995,9.264-1.995,14.096c0,3.401,0.258,5.489,1.056,8.772c0.305,1.29,0.54,2.345,0.516,2.369
	c-0.022,0.023-0.844-1.032-1.807-2.345c-4.294-5.817-14.971-15.152-24.521-21.414c-7.791-5.09-14.598-7.74-23.866-9.241
	C-4.958-209.567-10.097-209.778-15.729-209.45z"/>
<path d="M268.5-157.764c5.466,0.66,10.578,3.741,17.189,10.381c8.795,8.833,14.621,19.75,17.078,31.987
	c0.515,2.598,0.661,4.241,0.749,9.347c0.124,5.774-0.072,8.159-0.925,11.057c-0.673,2.348-1.532,3.793-3.132,5.326
	c-2.135,2.046-3.154,2.37-2.207,0.697c0.483-0.874,1.136-3.596,1.656-6.838c0.449-2.905,0.463-11.776,0-14.909
	c-0.959-6.713-2.633-12.428-5.649-19.111c-3.08-6.911-7.3-12.399-14.299-18.628c-1.35-1.211-3.134-2.634-3.933-3.192
	c-7.425-4.93-16.029-4.827-22.97,0.323c-7.375,5.488-13.053,16.992-16.473,33.338c-0.425,2.046-1.084,5.737-1.084,6.074
	c0,0.125,0.571,0.609,1.284,1.072c3.22,2.083,7.033,5.524,9.258,8.356c6.038,7.696,9.382,16.97,10.095,28.049
	c0.427,6.499-0.961,11.289-4.203,14.533c-2.011,2.009-3.419,2.656-5.666,2.53c-1.297-0.072-1.672-0.16-2.845-0.763
	c-1.659-0.835-3.867-2.868-5.289-4.842c-3.244-4.504-5.167-10.652-5.84-18.678c-0.266-3.082-0.126-19.237,0.176-22.333
	c0.124-1.123,0.235-2.597,0.235-3.28l0.034-1.248l-1.334-0.784c-12.554-7.499-20.198-0.213-21.196,20.16
	c-0.176,3.633,0,10.19,0.301,10.44c0.074,0.052,0.837,0.638,1.674,1.299c3.116,2.385,5.86,5.826,7.606,9.567
	c1.087,2.281,1.55,3.617,2.099,6.053c0.734,3.241,0.462,5.377-0.96,7.586c-1.263,1.943-3.809,3.99-4.968,3.99
	c-0.837,0-1.834-0.984-2.994-2.92c-2.706-4.594-4.466-10.63-5.573-18.987c-0.126-0.961-0.142-0.982-1.374-1.834
	c-0.697-0.483-2.135-1.298-3.206-1.819c-5.736-2.782-10.917-3.096-14.263-0.873c-0.733,0.483-1.123,0.946-1.782,2.069
	c-2.319,3.933-4.079,9.192-4.915,14.569c-0.36,2.371-0.302,10.33,0.087,12.466c1.798,9.655,5.877,19.323,11.468,27.196
	c1.496,2.123,2.744,3.668,2.832,3.567c0.05-0.052-0.052-0.837-0.212-1.747c-0.427-2.281-0.463-6.588-0.052-7.461
	c0.372-0.821,2.972-3.565,3.779-4.005c0.907-0.485,1.121-0.3,1.26,1.011c0.052,0.625,0.266,1.695,0.462,2.371
	c0.411,1.408,0.449,2.223,0.162,3.03c-0.176,0.462-0.124,0.909,0.287,2.692c0.572,2.473,1.656,5.715,2.443,7.263
	c0.286,0.587,0.983,1.747,1.496,2.545c0.747,1.139,1.107,1.498,1.586,1.658c0.857,0.287,1.51,0.858,1.51,1.32
	c0,0.999-2.97,4.404-5.237,6.001c-1.198,0.859-1.762,1.049-1.975,0.713c-0.124-0.236-1.197-0.713-7.409-3.405
	c-5.614-2.443-9.098-4.027-11.079-5.091c-1.123-0.588-1.211-0.676-1.107-1.107c0.176-0.713,1.173-1.96,2.831-3.544
	c1.783-1.726,2.76-2.297,3.471-2.047c0.463,0.161,0.359-0.052-1.107-2.443c-5.167-8.371-8.407-16.706-9.691-24.953
	c-0.449-2.906-0.449-9.619,0.014-12.464c1.322-8.298,4.578-15.708,8.942-20.286c1.922-2.01,3.492-3.192,5.613-4.181
	c2.493-1.16,3.721-1.424,6.573-1.424c2.583,0,4.255,0.323,6.662,1.21c1.444,0.55,1.41,0.55,1.284,0.139
	c-0.176-0.514,0.212-8.708,0.513-10.991c1.035-7.835,3.596-13.609,7.998-18.003c3.08-3.067,5.966-4.615,9.384-5.055
	c2.457-0.301,5.379,0.301,7.762,1.6c0.551,0.286,1.034,0.513,1.05,0.484c0.036-0.015,0.302-1.335,0.608-2.883
	c1.885-9.669,4.865-17.938,8.908-24.754c4.276-7.16,8.745-11.804,14.108-14.606c4.042-2.098,8.546-3.045,12.428-2.568L268.5-157.764
	z M233.701-105.3c-0.763,10.44-0.945,15.759-0.661,20.271c0.551,8.599,1.997,13.822,5.151,18.613
	c2.509,3.808,6.14,6.236,9.346,6.236c1.975,0,2.51-0.212,2.848-1.122c0.961-2.599,1.263-4.865,1.137-8.746
	c-0.11-3.596-0.57-6.537-1.886-11.776c-1.174-4.718-2.067-7.249-3.755-10.689c-2.709-5.524-6.092-9.816-10.456-13.286
	c-0.733-0.588-1.385-1.049-1.459-1.049C233.877-106.848,233.767-106.15,233.701-105.3z M211.506-66.026
	c0.926,3.47,2.085,6.112,3.545,8.159c1.071,1.533,1.122,1.136,0.198-1.636c-0.999-3.009-3.705-8.424-4.043-8.086
	c-0.052,0.052,0.09,0.749,0.3,1.57V-66.026z"/>
<path d="M-116.664-15.15c-0.071,0.211-0.141,0.774-0.141,1.267s-0.164,2.3-0.377,4.036c-0.469,3.966-0.305,9.997,0.377,13.446
	c0.258,1.291,0.469,2.394,0.469,2.464c-0.023,0.188-1.01-1.032-3.332-4.06c-3.096-4.083-4.504-5.655-7.319-8.143
	c-8.142-7.204-15.671-10.114-23.132-8.894c-3.824,0.61-9.431,3.074-12.997,5.679c-7.741,5.702-13.677,16.59-14.944,27.432
	c-0.281,2.347-0.164,9.269,0.188,12.46l0.141,1.36l-1.383-0.633c-7.133-3.262-10.769-4.623-15.93-5.96
	c-5.513-1.432-10.745-1.948-15.953-1.596c-18.205,1.22-33.431,18.045-39.976,44.186c-1.056,4.271-2.698,12.414-3.19,15.934
	c-0.985,6.875,0.117,16.051,2.369,19.688c0.798,1.268,1.736,2.277,2.135,2.277c0.469,0,0.375-0.446-0.54-2.277
	c-1.361-2.77-1.83-5.491-1.83-10.747c-0.023-5.045,0.07-5.608,1.877-13.493c2.792-12.132,4.95-18.514,8.985-26.445
	c3.191-6.289,6.17-10.489,10.44-14.737c5.279-5.256,10.862-8.33,17.056-9.41c3.261-0.563,9.854-0.329,13.724,0.469
	c6.076,1.291,10.393,2.863,18.604,6.829c5.185,2.511,6.288,2.792,7.624,1.9c1.643-1.056,1.83-2.417,1.174-7.932
	c-0.211-1.736-0.398-5.139-0.398-7.696c-0.023-3.919,0.047-4.905,0.492-6.946C-171.115,9.114-168.465,3.693-164.5-1
	c3.754-4.458,9.924-7.955,15.343-8.683c4.129-0.563,8.798,0.939,13.653,4.435c2.746,1.948,7.742,6.969,10.064,10.137l1.995,2.699
	l-0.868,0.165c-0.47,0.07-2.98,0.281-5.537,0.422c-5.371,0.305-6.123,0.469-7.248,1.431c-1.854,1.643-1.525,4.646,0.656,5.679
	c1.126,0.54,4.926,1.033,9.196,1.22c1.946,0.07,6.663,0.352,10.487,0.634c7.742,0.563,8.211,0.516,9.688-0.774
	c1.83-1.619,1.735-3.637-0.399-8.565c-0.845-1.948-1.947-4.787-2.416-6.336c-2.041-6.594-4.668-14.596-5.185-15.746
	C-115.633-15.549-116.359-15.948-116.664-15.15z"/>
<path d="M244.682,117.318c-12.971,2.377-25.001,8.93-35.232,19.269c-7.076,7.103-11.736,14.045-18.584,27.673
	c-8.15,16.193-12.675,30.708-14.179,45.075c-0.483,4.753-0.483,5.276,0,6.552c0.685,1.799,3.29,4.7,5.546,6.19
	c2.282,1.53,2.578,1.504,2.309-0.095c-0.482-2.926,1.236-12.742,3.787-21.482c10.365-35.395,25.78-57.133,48.137-67.767
	c20.14-9.614,41.233-7.144,53.453,6.257c2.511,2.739,4.632,7.237,6.257,13.199c1.987,7.264,3.29,14.608,2.833,15.803
	c-0.255,0.658-0.026,0.779-8.217-4.403c-9.521-6.069-12.837-7.532-13.427-6.028c-0.82,2.188,7.008,12.15,15.869,20.18
	c5.117,4.66,7.037,6.258,13.629,11.373c5.545,4.338,6.781,5.116,7.855,5.116c0.887,0,0.939-0.362,1.141-6.526
	c0.203-5.25,0.297-5.895,3.949-24.772l1.57-7.948l-0.712-1.344c-1.168-2.188-5.21-6.969-7.425-8.794
	c-1.92-1.571-5.868-3.975-6.096-3.679c-0.431,0.456-1.599,3.223-2.445,5.867c-0.59,1.759-1.113,3.195-1.168,3.195
	c-0.053,0-1.368-1.664-2.873-3.679c-3.559-4.753-4.727-6.123-9.291-10.755c-9.815-9.937-19.792-15.938-30.547-18.355
	c-3.719-0.818-11.991-0.912-16.14-0.134V117.318z"/>
<path d="M-13.553,170.503c-0.549,0.322-2.47,1.571-4.336,2.807c-3.68,2.443-13.199,8.177-17.106,10.339
	c-2.376,1.303-2.538,1.463-2.351,2.242c0.297,1.209,1.397,2.807,3.681,5.25l1.96,2.121l-8.54,8.634
	c-8.701,8.769-12.647,13.293-21.711,24.935c-2.767,3.558-5.667,7.143-6.419,7.948l-1.369,1.504l-0.027-1.53
	c0-2.605-0.912-6.392-1.986-8.406c-0.686-1.275-2.082-2.967-4.109-4.887c-3.155-3.102-5.411-4.432-6.781-4.109
	c-0.523,0.135-1.854,1.988-4.699,6.525c-4.727,7.533-10.271,15.509-13.562,19.591c-3.062,3.786-8.149,8.7-11.211,10.849
	c-2.351,1.666-2.968,1.826-2.968,0.819c0-0.913-2.215-7.144-3.289-9.292c-2.538-5.021-6.553-9.653-10.688-12.285
	c-3.29-2.121-4.015-1.893-8.11,2.605c-5.022,5.478-8.674,10.109-17.335,22.061l-3.356,4.658l-1.168-2.215
	c-2.672-5.049-7.103-10.138-10.5-11.99c-1.37-0.752-2.188-0.94-3.719-0.98c-1.692,0-2.148,0.135-3.585,1.141
	c-2.444,1.692-6.58,5.963-9.318,9.614c-1.343,1.8-4.364,6.324-6.781,10.11c-2.417,3.746-5.183,7.949-6.163,9.292
	c-1.732,2.349-1.826,2.376-2.122,1.624c-1.235-3.154-4.042-8.311-5.438-10.043c-3.035-3.719-7.855-6.579-10.231-6.068
	c-1.598,0.322-3.491,1.57-5.438,3.611c-4.042,4.176-26.895,34.87-27.7,37.26c-0.295,0.819-0.202,1.209,0.55,2.605
	c0.94,1.732,4.404,5.25,6.62,6.713c1.504,0.98,2.806,0.846,2.471-0.229c-0.295-0.912,4.136-7.881,13.011-20.502
	c10.003-14.273,14.179-19.457,16.824-20.866c0.752-0.39,0.779-0.255,2.122,6.163c1.531,7.236,2.874,9.748,6.942,13.104
	c2.766,2.283,4.364,3.224,5.505,3.224c2.027,0,6.579-5.896,14.891-19.295c5.317-8.566,8.244-12.381,11.923-15.455
	c1.141-0.98,2.215-1.625,2.35-1.504s0.618,1.854,1.047,3.813c1.074,4.726,1.598,6.122,2.967,7.989
	c1.799,2.443,6.485,6.713,8.446,7.652c1.665,0.819,1.826,0.819,2.9,0.363c1.503-0.617,3.948-3.719,10.89-13.884
	c5.961-8.794,9.197-13.132,12.42-16.851l2.121-2.443l1.209,3.679c2.055,6.418,4.471,10.365,8.539,14.151
	c5.479,5.021,9.252,5.801,14.206,2.874c2.351-1.37,7.237-6.097,10.366-9.937c2.283-2.873,7.6-10.66,9.748-14.38l1.302-2.216
	l0.362,1.464c0.752,2.927,1.8,4.524,5.156,7.854c4.068,4.015,6.069,5.184,8.446,4.982c2.31-0.202,3.88-1.008,6.324-3.291
	c2.12-1.986,2.806-2.832,9.708-12.258c5.316-7.197,10.203-13.468,14.045-17.966c3.611-4.176,14.796-15.643,15.293-15.643
	c0.201,0,0.913,0.819,1.625,1.826c1.598,2.216,5.961,6.687,7.787,7.948c1.531,1.048,2.968,1.504,3.223,1.074
	c0.094-0.16,0.482-2.121,0.887-4.363c1.853-10.822,3.195-15.777,6.323-23.242c1.826-4.337,1.921-5.64,0.524-7.721
	c-1.438-2.215-7.922-8.379-9.52-9.09c-1.732-0.779-1.826-0.779-3.035-0.094L-13.553,170.503z"/>
<path d="M169.754,264.932c-4.363,3.491-11.307,5.21-22.746,5.666c-3.033,0.135-5.8,0.363-6.096,0.523
	c-0.98,0.484-0.658,1.438,1.396,4.176c4.793,6.324,9.291,9.748,12.971,9.775l1.168,0.027l-1.691,1.57
	c-0.939,0.887-3.063,2.605-4.727,3.881c-12.877,9.654-29.795,16.528-48.996,19.845c-4.727,0.819-17.791,0.819-22.974,0
	c-11.467-1.799-19.792-4.592-31.486-10.526c-8.083-4.109-9.09-4.297-7.103-1.275c2.578,3.88,5.478,5.961,13.978,10.043
	c10.957,5.25,18.019,7.492,29.002,9.252c4.525,0.752,18.61,0.818,23.149,0.134c14.018-2.081,29.109-7.144,44.496-14.864
	c1.598-0.818,2.969-1.463,3.035-1.463c0.094,0,0.98,1.114,1.987,2.416c3.384,4.432,7.653,7.883,9.386,7.627
	c0.523-0.066,1.893-2.416,6.123-10.688c5.84-11.373,9.479-17.737,12.258-21.282c1.504-1.96,1.692-2.35,1.397-3.062
	c-1.235-3.289-9.292-11.346-12.421-12.447c-0.752-0.254-1.073-0.16-2.121,0.686L169.754,264.932z"/>
</svg>
